<svg width="881" height="880" xmlns="http://www.w3.org/2000/svg" xmlns:xlink="http://www.w3.org/1999/xlink" xml:space="preserve" overflow="hidden"><defs><clipPath id="clip0"><rect x="1200" y="777" width="881" height="880"/></clipPath></defs><g clip-path="url(#clip0)" transform="translate(-1200 -777)"><path d="M1200 1217C1200 973.995 1397.22 777 1640.5 777 1883.78 777 2081 973.995 2081 1217 2081 1460.01 1883.78 1657 1640.5 1657 1397.22 1657 1200 1460.01 1200 1217Z" fill-rule="evenodd"/><path d="M1693.76 1106.73C1755.08 1060.22 1848.8 1061.59 1907.37 1112.18 1938.91 1138.23 1959.35 1175.97 1967.35 1215.79 1974.97 1254.2 1974.89 1294.24 1967.07 1332.59 1958.94 1371.7 1938.75 1408.69 1907.91 1434.41 1849.68 1485.1 1756.27 1486.95 1694.81 1440.91 1659.79 1415.27 1634 1379.49 1610.93 1343.27 1586.98 1376.11 1556.6 1405.08 1519.66 1422.75 1488.84 1438.38 1453.04 1446.22 1418.82 1438.97 1377.91 1430.9 1343.68 1400.72 1325.48 1363.91 1306.72 1324.75 1304.06 1279.69 1309.48 1237.18 1314.44 1198.2 1332.56 1160.13 1363.58 1135.26 1394.4 1108.93 1438.02 1100.13 1477.18 1109.39 1531.95 1122.13 1578.28 1158.94 1611.01 1203.75 1633.72 1167.76 1659.25 1132.37 1693.76 1106.73M1722.59 1194.54C1700.29 1218.14 1681.83 1245.12 1664.49 1272.49 1682.06 1299.24 1699.67 1326.09 1720.19 1350.7 1740.4 1374.82 1771.58 1390.81 1803.48 1388.75 1824.08 1388.08 1844.65 1379.52 1858.35 1363.91 1879.11 1340.49 1887.96 1308.73 1888.86 1277.99 1889.66 1250.41 1886.05 1221.37 1870.85 1197.71 1857.22 1176.33 1834.32 1160.05 1808.64 1157.96 1776.02 1154.69 1744.45 1171.32 1722.59 1194.54M1417.32 1201.74C1397.94 1215.51 1388.52 1239.53 1387.64 1262.69 1386.22 1288.43 1390.89 1316.99 1410.3 1335.61 1424.21 1350.39 1445.92 1356.17 1465.64 1352.17 1482.18 1349.67 1496.12 1339.56 1508.59 1329.01 1528.57 1312.04 1545.42 1291.79 1561.45 1271.13 1539.15 1240.82 1513.91 1209.45 1477.92 1195.11 1458.26 1187.32 1434.43 1188.63 1417.32 1201.74Z" fill="#FFFFFF" fill-rule="evenodd"/><path d="M1766.91 844.823C1743.55 823.503 1585.21 883.258 1543.5 923.34 1501.79 963.421 1484.95 1050.01 1516.63 1085.31 1548.31 1120.62 1648.37 1082.94 1683.68 1051.26 1724.36 1014.75 1790.27 866.143 1766.91 844.823Z" fill="#FFFFFF" fill-rule="evenodd"/></g></svg>