<svg width="881" height="880" xmlns="http://www.w3.org/2000/svg" xmlns:xlink="http://www.w3.org/1999/xlink" xml:space="preserve" overflow="hidden"><defs><clipPath id="clip0"><rect x="211" y="777" width="881" height="880"/></clipPath></defs><g clip-path="url(#clip0)" transform="translate(-211 -777)"><path d="M211 1217C211 973.995 408.219 777 651.5 777 894.781 777 1092 973.995 1092 1217 1092 1460.01 894.781 1657 651.5 1657 408.219 1657 211 1460.01 211 1217Z" fill="#FFC000" fill-rule="evenodd"/><path d="M705.176 1106.73C766.411 1060.22 859.99 1061.59 918.467 1112.18 949.961 1138.23 970.372 1175.97 978.362 1215.79 985.965 1254.2 985.887 1294.24 978.078 1332.59 969.96 1371.7 949.806 1408.69 919.008 1434.41 860.866 1485.1 767.596 1486.95 706.232 1440.91 671.259 1415.27 645.513 1379.49 622.473 1343.27 598.556 1376.11 568.222 1405.08 531.342 1422.75 500.57 1438.38 464.824 1446.22 430.65 1438.97 389.8 1430.9 355.626 1400.72 337.457 1363.91 318.721 1324.75 316.066 1279.69 321.478 1237.18 326.426 1198.2 344.518 1160.13 375.497 1135.26 406.269 1108.93 449.824 1100.13 488.921 1109.39 543.609 1122.13 589.871 1158.94 622.55 1203.75 645.229 1167.76 670.718 1132.37 705.176 1106.73M733.964 1194.54C711.696 1218.14 693.269 1245.12 675.95 1272.49 693.501 1299.24 711.078 1326.09 731.567 1350.7 751.746 1374.82 782.879 1390.81 814.734 1388.75 835.3 1388.08 855.84 1379.52 869.526 1363.91 890.247 1340.49 899.087 1308.73 899.988 1277.99 900.787 1250.41 897.179 1221.37 881.999 1197.71 868.392 1176.33 845.532 1160.05 819.888 1157.96 787.312 1154.69 755.792 1171.32 733.964 1194.54M429.155 1201.74C409.8 1215.51 400.393 1239.53 399.516 1262.69 398.099 1288.43 402.764 1316.99 422.145 1335.61 436.036 1350.39 457.71 1356.17 477.4 1352.17 493.92 1349.67 507.837 1339.56 520.285 1329.01 540.233 1312.04 557.063 1291.79 573.067 1271.13 550.8 1240.82 525.594 1209.45 489.668 1195.11 470.029 1187.32 446.242 1188.63 429.155 1201.74Z" fill="#202124" fill-rule="evenodd"/><path d="M778.197 844.823C754.833 823.503 596.498 883.258 554.784 923.34 513.071 963.421 496.232 1050.01 527.916 1085.31 559.599 1120.62 659.659 1082.94 694.964 1051.26 735.642 1014.75 801.56 866.143 778.197 844.823Z" fill="#00B050" fill-rule="evenodd"/></g></svg>