<svg width="882" height="880" xmlns="http://www.w3.org/2000/svg" xmlns:xlink="http://www.w3.org/1999/xlink" xml:space="preserve" overflow="hidden"><defs><clipPath id="clip0"><rect x="2188" y="777" width="882" height="880"/></clipPath></defs><g clip-path="url(#clip0)" transform="translate(-2188 -777)"><path d="M2188 1217C2188 973.995 2385.44 777 2629 777 2872.56 777 3070 973.995 3070 1217 3070 1460.01 2872.56 1657 2629 1657 2385.44 1657 2188 1460.01 2188 1217Z" fill="#FFFFFF" fill-rule="evenodd"/><path d="M2682.76 1106.73C2744.08 1060.22 2837.8 1061.59 2896.37 1112.18 2927.91 1138.23 2948.35 1175.97 2956.35 1215.79 2963.97 1254.2 2963.89 1294.24 2956.07 1332.59 2947.94 1371.7 2927.75 1408.69 2896.91 1434.41 2838.68 1485.1 2745.27 1486.95 2683.81 1440.91 2648.79 1415.27 2623 1379.49 2599.93 1343.27 2575.98 1376.11 2545.6 1405.08 2508.66 1422.75 2477.84 1438.38 2442.04 1446.22 2407.82 1438.97 2366.91 1430.9 2332.68 1400.72 2314.48 1363.91 2295.72 1324.75 2293.06 1279.69 2298.48 1237.18 2303.44 1198.2 2321.56 1160.13 2352.58 1135.26 2383.4 1108.93 2427.02 1100.13 2466.18 1109.39 2520.95 1122.13 2567.28 1158.94 2600.01 1203.75 2622.72 1167.76 2648.25 1132.37 2682.76 1106.73M2711.59 1194.54C2689.29 1218.14 2670.83 1245.12 2653.49 1272.49 2671.06 1299.24 2688.67 1326.09 2709.19 1350.7 2729.4 1374.82 2760.58 1390.81 2792.48 1388.75 2813.08 1388.08 2833.65 1379.52 2847.35 1363.91 2868.11 1340.49 2876.96 1308.73 2877.86 1277.99 2878.66 1250.41 2875.05 1221.37 2859.85 1197.71 2846.22 1176.33 2823.32 1160.05 2797.64 1157.96 2765.02 1154.69 2733.45 1171.32 2711.59 1194.54M2406.32 1201.74C2386.94 1215.51 2377.52 1239.53 2376.64 1262.69 2375.22 1288.43 2379.89 1316.99 2399.3 1335.61 2413.21 1350.39 2434.92 1356.17 2454.64 1352.17 2471.18 1349.67 2485.12 1339.56 2497.59 1329.01 2517.57 1312.04 2534.42 1291.79 2550.45 1271.13 2528.15 1240.82 2502.91 1209.45 2466.92 1195.11 2447.26 1187.32 2423.43 1188.63 2406.32 1201.74Z" fill-rule="evenodd"/><path d="M2755.63 844.823C2732.26 823.503 2573.93 883.258 2532.21 923.339 2490.5 963.421 2473.66 1050.01 2505.34 1085.31 2537.03 1120.62 2637.09 1082.94 2672.39 1051.26 2713.07 1014.75 2778.99 866.142 2755.63 844.823Z" fill-rule="evenodd"/></g></svg>