<svg width="2528" height="831" xmlns="http://www.w3.org/2000/svg" xmlns:xlink="http://www.w3.org/1999/xlink" xml:space="preserve" overflow="hidden"><defs><clipPath id="clip0"><rect x="2696" y="1499" width="2528" height="831"/></clipPath></defs><g clip-path="url(#clip0)" transform="translate(-2696 -1499)"><path d="M3312.21 1510.58C3334.86 1504.46 3358.02 1498.42 3381.65 1499.04 3389.55 1499.43 3399.2 1500.75 3403.5 1508.36 3408.87 1519.56 3406.88 1532.55 3405.23 1544.39 3399.3 1577.82 3386.86 1609.67 3373.5 1640.71 3360.11 1671.09 3344.79 1700.67 3326.99 1728.7 3313.34 1749.66 3297.97 1770.38 3276.51 1783.88 3239.98 1807.83 3198.37 1824.38 3155.26 1831.4 3142.62 1859.53 3133.1 1888.93 3122.01 1917.68 3085.36 2012.82 3048.44 2107.82 3011.89 2202.99 3000.77 2232.2 2987.56 2260.57 2972.88 2288.13 2966.23 2301.17 2958.51 2314.69 2945.51 2322.33 2917.91 2338.59 2877.49 2328.19 2863.35 2298.77 2847.64 2264.44 2835.31 2228.64 2822.77 2193.05 2799.5 2125.09 2779.23 2056.1 2759.88 1986.93 2744.92 1930.15 2725.29 1874.73 2709.76 1818.13 2703.93 1795.6 2697.92 1772.91 2696.22 1749.61 2694.95 1735.13 2699.23 1719.95 2709.42 1709.37 2725.98 1690.99 2754.7 1685.83 2777.01 1696 2791.53 1702.76 2801.39 1716.91 2806.19 1731.85 2813.69 1760.78 2818.54 1790.41 2827.78 1818.88 2859.38 1922.3 2885.02 2027.53 2920.15 2129.84 2964.27 2020.2 3006.5 1909.78 3046.35 1798.52 3049.42 1787.99 3056.57 1778.64 3058.01 1767.8 3053.34 1728.65 3062.04 1688.72 3079.01 1653.44 3090.21 1630.8 3105.45 1609.56 3126.09 1594.67 3149.05 1577.84 3174.51 1564.76 3200.2 1552.63 3236.42 1535.9 3273.77 1521.42 3312.21 1510.58Z" fill="#FFFFFF" fill-rule="evenodd"/><path d="M4975.55 1524.79C4982.93 1517.88 4997.02 1519.35 5005.99 1523.53 5008.03 1549.65 5006.25 1576.09 5006.84 1602.34 5006.87 1656.5 5006.79 1710.65 5006.87 1764.81 5006.48 1771.13 5007.92 1777.89 5005.73 1783.92 4998.6 1787.79 4989.52 1787.04 4981.95 1785.06 4977.51 1783.97 4979.16 1778.27 4978.65 1775.05 4978.54 1769.45 4978.67 1763.86 4978.8 1758.29 4966.25 1770.56 4952.31 1782.79 4934.89 1787.12 4913.19 1792.05 4888.11 1787.51 4872.36 1770.95 4854.35 1752.33 4849.71 1725.17 4849.01 1700.26 4848.75 1673.36 4852.85 1644.25 4870.66 1622.97 4886.56 1603.68 4913.96 1596.72 4937.82 1602.13 4952.51 1605.69 4964.27 1615.72 4975.12 1625.76 4975.25 1592.1 4974.52 1558.42 4975.55 1524.79M4899.01 1638.32C4885.35 1652.65 4881.9 1673.52 4881.59 1692.6 4881.77 1710.53 4883.19 1729.61 4893.08 1745.11 4899.73 1755.86 4912 1762.9 4924.78 1762.05 4941.64 1762.23 4955.32 1750.68 4966.2 1739 4969.94 1734.46 4975.92 1730.18 4975.22 1723.55 4975.14 1702.3 4975.06 1681.02 4975.19 1659.77 4966.02 1649.25 4956.48 1638.47 4943.98 1631.89 4929.65 1624.44 4910.25 1626.17 4899.01 1638.32Z" fill="#FFFFFF" fill-rule="evenodd"/><path d="M4775.34 1533.38C4783.78 1531.6 4794.46 1530.54 4801.47 1536.75 4806.2 1543.91 4805.48 1553.64 4803.34 1561.64 4801 1569.22 4791.76 1569.94 4785.15 1569.99 4778.28 1570.1 4768.91 1568.73 4767.21 1560.65 4765.31 1551.52 4764.22 1536.82 4775.34 1533.38Z" fill="#FFFFFF" fill-rule="evenodd"/><path d="M4136.57 1538.6C4147.33 1537.41 4158.21 1538.41 4169.04 1538.13 4191.37 1538.26 4214.62 1536.58 4235.82 1545.11 4254.5 1552.46 4269.88 1568.47 4275.04 1588.18 4281.17 1611.91 4277.96 1638.73 4263.77 1659.01 4252.91 1674.56 4235.46 1684.47 4217.26 1688.5 4198.45 1692.77 4179.05 1691.42 4159.93 1691.68 4159.83 1722.34 4159.7 1752.99 4159.75 1783.64 4149.43 1788.09 4137.29 1788.15 4127 1783.64 4127.21 1706.71 4126.95 1629.75 4127.13 1552.82 4126.51 1546.56 4130 1539.76 4136.57 1538.6M4159.9 1664.42C4178.59 1663.82 4198.32 1667.29 4216.06 1659.76 4248.16 1646.57 4253.48 1595.84 4226.73 1574.73 4207.23 1561 4182.15 1566.56 4159.93 1565.45 4159.88 1598.43 4159.9 1631.44 4159.9 1664.42Z" fill="#FFFFFF" fill-rule="evenodd"/><path d="M4646.82 1563.7C4646.54 1557.35 4654.45 1557.4 4658.95 1557.01 4665.18 1557.27 4673.32 1555.77 4677.82 1561.07 4678.85 1575.3 4677.92 1589.62 4678.23 1603.88 4694.05 1604.45 4709.94 1603.1 4725.69 1604.71 4729.85 1611.89 4730.6 1622.97 4724.99 1629.51 4709.5 1631.29 4693.79 1629.84 4678.25 1630.39 4678.23 1662.4 4678.23 1694.41 4678.23 1726.42 4678.49 1736.6 4679.03 1747.94 4685.88 1756.16 4694.1 1764.32 4707.18 1762.77 4717.13 1758.97 4720.67 1758.38 4727.06 1754.01 4727.81 1760.14 4728.97 1767.4 4730.21 1776.44 4725.12 1782.51 4717.78 1787.47 4708.57 1788.14 4700.04 1788.92 4685.47 1789.54 4669.21 1786.77 4658.95 1775.46 4649.1 1764.19 4647.19 1748.56 4646.77 1734.2 4646.54 1699.58 4646.67 1664.96 4646.62 1630.33 4637.65 1629.59 4627.88 1631.89 4619.43 1628.89 4614.75 1622.17 4614.77 1610.96 4620.05 1604.58 4628.83 1603.34 4637.78 1604.09 4646.67 1603.88 4646.88 1590.5 4646.41 1577.09 4646.82 1563.7Z" fill="#FFFFFF" fill-rule="evenodd"/><path d="M4326.38 1612.37C4350.41 1600.48 4378.6 1596.84 4404.79 1602.86 4417.86 1605.86 4430.47 1613.22 4437.25 1625.19 4446.89 1641.52 4445.91 1661.27 4445.93 1679.57 4445.62 1713.99 4446.5 1748.44 4445.52 1782.84 4439.02 1788.61 4427.73 1787.42 4420.18 1784.24 4417.3 1778.06 4419.15 1770.67 4418.74 1764.03 4405.7 1777.21 4388.79 1787.57 4369.94 1788.79 4351.77 1790 4331.74 1786.18 4318.57 1772.66 4305.14 1759.09 4302.26 1737.82 4307.38 1719.96 4311.74 1705.28 4323.93 1694.09 4337.85 1688.51 4362.06 1678.15 4388.89 1679.54 4414.61 1679.46 4414.51 1665.33 4416.14 1649.35 4407.09 1637.41 4397.71 1625.68 4381.08 1624.83 4367.31 1625.99 4350.41 1627.15 4335.74 1636.12 4320.87 1643.23 4312.72 1644.11 4313.29 1633.12 4313.47 1627.7 4313.06 1619.89 4320.35 1615.44 4326.38 1612.37M4362.57 1705.2C4352.18 1707.76 4341.82 1714.51 4338.63 1725.23 4335.61 1735.68 4337.21 1748.24 4345.3 1756.02 4354.19 1764.65 4367.88 1765.68 4379.46 1763.23 4393.89 1759.97 4404.85 1749.17 4414.72 1738.8 4414.54 1726.68 4414.59 1714.56 4414.56 1702.44 4397.24 1702.65 4379.51 1700.73 4362.57 1705.2Z" fill="#FFFFFF" fill-rule="evenodd"/><path d="M4566.1 1601.94C4577.67 1598.57 4590.87 1599.56 4601.59 1605.17 4605.27 1611 4603.58 1618.66 4603.79 1625.24 4603.46 1628.78 4603.14 1636.55 4597.73 1634.45 4588.44 1632.1 4578.76 1627.77 4569.15 1631.14 4556.59 1635.62 4548.83 1647.24 4541.29 1657.52 4538.52 1661.87 4534.43 1666.11 4534.79 1671.65 4534.61 1707.97 4535 1744.35 4534.61 1780.67 4535.08 1784.78 4530.08 1786.13 4526.97 1786.44 4518.9 1787.48 4510.4 1787.35 4503 1783.67 4503.34 1725.63 4502.9 1667.59 4503.21 1609.57 4502.27 1603.26 4509.76 1602.82 4514.13 1602.69 4519.67 1602.82 4526.33 1601.7 4530.94 1605.64 4532.57 1614.6 4531.63 1623.79 4531.95 1632.85 4541.21 1620.65 4551.08 1607.27 4566.1 1601.94Z" fill="#FFFFFF" fill-rule="evenodd"/><path d="M5121.95 1601.31C5145.42 1598.1 5171.19 1600.22 5191.2 1614.05 5209.4 1626.67 5219.27 1648.23 5222.32 1669.68 5226.15 1697 5224 1726.5 5209.89 1750.82 5197.9 1771.71 5175.23 1785.28 5151.52 1787.99 5128.67 1790.73 5103.78 1788.36 5084.47 1774.84 5066.81 1762.71 5057.2 1741.9 5054.02 1721.22 5050.06 1695.71 5051.46 1668.54 5062.34 1644.84 5072.89 1621.11 5096.46 1604.77 5121.95 1601.31M5118.95 1629.43C5098.04 1636.33 5087.57 1658.72 5085.61 1679.27 5083.64 1700.6 5084.42 1723.96 5096.2 1742.6 5115.41 1771.17 5165.95 1768.99 5181.97 1738.18 5190.84 1722 5192.03 1702.85 5191.02 1684.78 5189.78 1667.92 5185.64 1649.65 5172.64 1637.86 5158.24 1625.06 5136.61 1623.95 5118.95 1629.43Z" fill="#FFFFFF" fill-rule="evenodd"/><path d="M4771.07 1605.91C4778.98 1601.78 4788.68 1602.86 4797.24 1604.21 4801.64 1604.59 4802.08 1609.24 4801.95 1612.72 4801.95 1669.66 4801.82 1726.6 4802 1783.53 4793.08 1787.84 4782.39 1787.84 4773.05 1785.13 4768.86 1783.82 4770.55 1778.55 4770.06 1775.4 4770.19 1724.61 4770.16 1673.82 4770.08 1623.02 4770.21 1617.32 4769.41 1611.43 4771.07 1605.91Z" fill="#FFFFFF" fill-rule="evenodd"/><path d="M3766.62 1659.04C3785.89 1654.36 3808.25 1657.41 3822.97 1671.44 3833.61 1681.23 3838.39 1695.87 3837.98 1710.08 3837.95 1886.54 3838.03 2063.02 3837.92 2239.51 3837.64 2261.93 3834.83 2287.39 3817.17 2303.41 3794.06 2322.08 3755.21 2317.74 3737.45 2293.67 3729.46 2283.47 3726.73 2270.27 3727.02 2257.61 3727.12 2074.18 3726.92 1890.72 3727.12 1707.29 3726.55 1684.38 3744.49 1663.95 3766.62 1659.04Z" fill="#FFFFFF" fill-rule="evenodd"/><path d="M3963.69 1671.29C3978.89 1659.1 4000.31 1656.11 4018.77 1661.73 4031.52 1665.67 4041.74 1675.57 4047.73 1687.3 4056.4 1704.03 4058.65 1723.11 4060.04 1741.64 4063.94 1805.23 4056.04 1868.75 4056.32 1932.34 4087.84 1901.48 4129.14 1879.47 4173.66 1876.43 4208.64 1874.06 4247.22 1877.77 4275.31 1900.84 4301.43 1922.52 4309.89 1957.57 4313.92 1989.74 4318.13 2035.91 4316.94 2082.44 4322.39 2128.5 4326.39 2171.01 4330.98 2213.62 4341 2255.22 4345 2270.4 4343.34 2287.88 4332.99 2300.28 4313.92 2324.3 4274.14 2329.84 4250.5 2309.58 4234.94 2295.56 4232.02 2273.68 4227.35 2254.42 4217.36 2205.24 4211.04 2155.23 4209.51 2105.07 4209.36 2071.51 4213.36 2037.92 4210.55 2004.41 4209.59 1994.36 4203.21 1982.86 4191.86 1982.63 4169.3 1981.65 4147.13 1990.39 4129.6 2004.26 4102.06 2025.75 4085 2057.02 4067.4 2086.48 4064.27 2092.44 4059.32 2098.06 4059.5 2105.15 4059.29 2144.02 4058.83 2182.92 4055.55 2221.66 4054.08 2236.74 4052.43 2251.92 4048.3 2266.56 4042.57 2285.87 4026.67 2303.27 4005.97 2305.95 3978.04 2311.08 3945.95 2293.19 3939.97 2264.58 3936.66 2251.77 3942.75 2239.55 3944.46 2227.07 3950.32 2152.16 3946.65 2077.05 3947.45 2002.01 3947.68 1956.46 3948.28 1910.94 3948.9 1865.39 3949.96 1838.74 3951.92 1812.09 3952.17 1785.41 3952.36 1759.37 3944.17 1734.03 3944.77 1708 3945.08 1693.69 3952.28 1679.9 3963.69 1671.29Z" fill="#FFFFFF" fill-rule="evenodd"/><path d="M4709.76 1907.82C4771.08 1861.19 4864.8 1862.56 4923.37 1913.27 4954.91 1939.39 4975.35 1977.22 4983.35 2017.15 4990.97 2055.66 4990.89 2095.79 4983.07 2134.24 4974.94 2173.45 4954.75 2210.53 4923.91 2236.31 4865.68 2287.12 4772.27 2288.98 4710.81 2242.83 4675.79 2217.12 4650 2181.25 4626.93 2144.95 4602.98 2177.87 4572.6 2206.91 4535.66 2224.62 4504.84 2240.29 4469.04 2248.15 4434.82 2240.89 4393.91 2232.79 4359.68 2202.54 4341.48 2165.64 4322.72 2126.38 4320.06 2081.2 4325.48 2038.59 4330.44 1999.51 4348.56 1961.35 4379.58 1936.42 4410.4 1910.02 4454.02 1901.2 4493.18 1910.48 4547.95 1923.26 4594.28 1960.16 4627.01 2005.07 4649.72 1969 4675.25 1933.52 4709.76 1907.82M4738.59 1995.84C4716.29 2019.5 4697.83 2046.55 4680.49 2073.99 4698.06 2100.81 4715.67 2127.73 4736.19 2152.4 4756.4 2176.57 4787.58 2192.61 4819.48 2190.54 4840.08 2189.87 4860.65 2181.28 4874.35 2165.64 4895.11 2142.16 4903.96 2110.32 4904.86 2079.5 4905.66 2051.85 4902.05 2022.74 4886.85 1999.02 4873.22 1977.59 4850.32 1961.27 4824.64 1959.17 4792.02 1955.89 4760.45 1972.57 4738.59 1995.84M4433.32 2003.06C4413.94 2016.87 4404.52 2040.94 4403.64 2064.16 4402.22 2089.97 4406.89 2118.6 4426.3 2137.27 4440.21 2152.09 4461.92 2157.88 4481.64 2153.87 4498.18 2151.36 4512.12 2141.22 4524.59 2130.65 4544.57 2113.63 4561.42 2093.33 4577.45 2072.62 4555.15 2042.23 4529.9 2010.79 4493.92 1996.41 4474.26 1988.6 4450.43 1989.92 4433.32 2003.06Z" fill="#FFFFFF" fill-rule="evenodd"/><path d="M3359.68 1900.22C3403.3 1878.86 3453.71 1878.03 3500.92 1884.66 3534.57 1889.98 3569.08 1900.5 3594.84 1923.75 3627.16 1952.75 3635.6 2007.39 3608.24 2042.4 3590.17 2066.6 3563.12 2081.59 3536.56 2094.67 3475.54 2123.93 3413.08 2149.98 3351.47 2177.87 3378.05 2206.9 3418.27 2219.13 3456.75 2219.05 3488.58 2219.51 3521.31 2213.94 3549.13 2197.87 3568.26 2187.19 3589.11 2175.32 3611.85 2178.11 3623.96 2179.16 3636.37 2185.56 3641.2 2197.25 3648.04 2214.4 3645.41 2234.84 3635.24 2250.16 3624.19 2266.91 3606.87 2278.21 3589.22 2287.03 3534.86 2313.55 3472.45 2320.96 3412.82 2312.93 3366.93 2306.84 3321.4 2289.02 3287.64 2256.64 3256.53 2227.92 3239.68 2186.18 3237.43 2144.31 3235.32 2101.61 3240.84 2058.09 3256.48 2018.12 3275.94 1968.74 3311.12 1923.62 3359.68 1900.22M3396.51 1993.54C3369.07 2013.01 3353.74 2044.8 3343.72 2076.02 3402.88 2049.99 3464.26 2027.72 3518.83 1992.5 3500.58 1982.7 3479.85 1978.6 3459.31 1977.75 3437.42 1976.2 3414.52 1980.48 3396.51 1993.54Z" fill="#FFFFFF" fill-rule="evenodd"/></g></svg>