<svg width="2293" height="831" xmlns="http://www.w3.org/2000/svg" xmlns:xlink="http://www.w3.org/1999/xlink" xml:space="preserve" overflow="hidden"><defs><clipPath id="clip0"><rect x="2696" y="1499" width="2293" height="831"/></clipPath></defs><g clip-path="url(#clip0)" transform="translate(-2696 -1499)"><path d="M3312.21 1510.58C3334.86 1504.46 3358.02 1498.42 3381.65 1499.04 3389.55 1499.43 3399.2 1500.75 3403.5 1508.36 3408.87 1519.56 3406.88 1532.55 3405.23 1544.39 3399.3 1577.82 3386.86 1609.67 3373.5 1640.71 3360.11 1671.09 3344.79 1700.67 3326.99 1728.7 3313.34 1749.66 3297.97 1770.38 3276.51 1783.88 3239.98 1807.83 3198.37 1824.38 3155.26 1831.4 3142.62 1859.53 3133.1 1888.93 3122.01 1917.68 3085.36 2012.82 3048.44 2107.82 3011.89 2202.99 3000.77 2232.2 2987.56 2260.57 2972.88 2288.13 2966.23 2301.17 2958.51 2314.69 2945.51 2322.33 2917.91 2338.59 2877.49 2328.19 2863.35 2298.77 2847.64 2264.44 2835.31 2228.64 2822.77 2193.05 2799.5 2125.09 2779.23 2056.1 2759.88 1986.93 2744.92 1930.15 2725.29 1874.73 2709.76 1818.13 2703.93 1795.6 2697.92 1772.91 2696.22 1749.61 2694.95 1735.13 2699.23 1719.95 2709.42 1709.37 2725.98 1690.99 2754.7 1685.83 2777.01 1696 2791.53 1702.76 2801.39 1716.91 2806.19 1731.85 2813.69 1760.78 2818.54 1790.41 2827.78 1818.88 2859.38 1922.3 2885.02 2027.53 2920.15 2129.84 2964.27 2020.2 3006.5 1909.78 3046.35 1798.52 3049.42 1787.99 3056.57 1778.64 3058.01 1767.8 3053.34 1728.65 3062.04 1688.72 3079.01 1653.44 3090.21 1630.8 3105.45 1609.56 3126.09 1594.67 3149.05 1577.84 3174.51 1564.76 3200.2 1552.63 3236.42 1535.9 3273.77 1521.42 3312.21 1510.58Z" fill="#FFFFFF" fill-rule="evenodd"/><path d="M3766.62 1659.04C3785.89 1654.36 3808.25 1657.41 3822.97 1671.44 3833.61 1681.23 3838.39 1695.87 3837.98 1710.08 3837.95 1886.54 3838.03 2063.02 3837.92 2239.51 3837.64 2261.93 3834.83 2287.39 3817.17 2303.41 3794.06 2322.08 3755.21 2317.74 3737.45 2293.67 3729.46 2283.47 3726.73 2270.27 3727.02 2257.61 3727.12 2074.18 3726.92 1890.72 3727.12 1707.29 3726.55 1684.38 3744.49 1663.95 3766.62 1659.04Z" fill="#FFFFFF" fill-rule="evenodd"/><path d="M3963.69 1671.29C3978.89 1659.1 4000.31 1656.11 4018.77 1661.73 4031.52 1665.67 4041.74 1675.57 4047.73 1687.3 4056.4 1704.03 4058.65 1723.11 4060.04 1741.64 4063.94 1805.23 4056.04 1868.75 4056.32 1932.34 4087.84 1901.48 4129.14 1879.47 4173.66 1876.43 4208.64 1874.06 4247.22 1877.77 4275.31 1900.84 4301.43 1922.52 4309.89 1957.57 4313.92 1989.74 4318.13 2035.91 4316.94 2082.44 4322.39 2128.5 4326.39 2171.01 4330.98 2213.62 4341 2255.22 4345 2270.4 4343.34 2287.88 4332.99 2300.28 4313.92 2324.3 4274.14 2329.84 4250.5 2309.58 4234.94 2295.56 4232.02 2273.68 4227.35 2254.42 4217.36 2205.24 4211.04 2155.23 4209.51 2105.07 4209.36 2071.51 4213.36 2037.92 4210.55 2004.41 4209.59 1994.36 4203.21 1982.86 4191.86 1982.63 4169.3 1981.65 4147.13 1990.39 4129.6 2004.26 4102.06 2025.75 4085 2057.02 4067.4 2086.48 4064.27 2092.44 4059.32 2098.06 4059.5 2105.15 4059.29 2144.02 4058.83 2182.92 4055.55 2221.66 4054.08 2236.74 4052.43 2251.92 4048.3 2266.56 4042.57 2285.87 4026.67 2303.27 4005.97 2305.95 3978.04 2311.08 3945.95 2293.19 3939.97 2264.58 3936.66 2251.77 3942.75 2239.55 3944.46 2227.07 3950.32 2152.16 3946.65 2077.05 3947.45 2002.01 3947.68 1956.46 3948.28 1910.94 3948.9 1865.39 3949.96 1838.74 3951.92 1812.09 3952.17 1785.41 3952.36 1759.37 3944.17 1734.03 3944.77 1708 3945.08 1693.69 3952.28 1679.9 3963.69 1671.29Z" fill="#FFFFFF" fill-rule="evenodd"/><path d="M4709.76 1907.82C4771.08 1861.19 4864.8 1862.56 4923.37 1913.27 4954.91 1939.39 4975.35 1977.22 4983.35 2017.15 4990.97 2055.66 4990.89 2095.79 4983.07 2134.24 4974.94 2173.45 4954.75 2210.53 4923.91 2236.31 4865.68 2287.12 4772.27 2288.98 4710.81 2242.83 4675.79 2217.12 4650 2181.25 4626.93 2144.95 4602.98 2177.87 4572.6 2206.91 4535.66 2224.62 4504.84 2240.29 4469.04 2248.15 4434.82 2240.89 4393.91 2232.79 4359.68 2202.54 4341.48 2165.64 4322.72 2126.38 4320.06 2081.2 4325.48 2038.59 4330.44 1999.51 4348.56 1961.35 4379.58 1936.42 4410.4 1910.02 4454.02 1901.2 4493.18 1910.48 4547.95 1923.26 4594.28 1960.16 4627.01 2005.07 4649.72 1969 4675.25 1933.52 4709.76 1907.82M4738.59 1995.84C4716.29 2019.5 4697.83 2046.55 4680.49 2073.99 4698.06 2100.81 4715.67 2127.73 4736.19 2152.4 4756.4 2176.57 4787.58 2192.61 4819.48 2190.54 4840.08 2189.87 4860.65 2181.28 4874.35 2165.64 4895.11 2142.16 4903.96 2110.32 4904.86 2079.5 4905.66 2051.85 4902.05 2022.74 4886.85 1999.02 4873.22 1977.59 4850.32 1961.27 4824.64 1959.17 4792.02 1955.89 4760.45 1972.57 4738.59 1995.84M4433.32 2003.06C4413.94 2016.87 4404.52 2040.94 4403.64 2064.16 4402.22 2089.97 4406.89 2118.6 4426.3 2137.27 4440.21 2152.09 4461.92 2157.88 4481.64 2153.87 4498.18 2151.36 4512.12 2141.22 4524.59 2130.65 4544.57 2113.63 4561.42 2093.33 4577.45 2072.62 4555.15 2042.23 4529.9 2010.79 4493.92 1996.41 4474.26 1988.6 4450.43 1989.92 4433.32 2003.06Z" fill="#FFFFFF" fill-rule="evenodd"/><path d="M3359.68 1900.22C3403.3 1878.86 3453.71 1878.03 3500.92 1884.66 3534.57 1889.98 3569.08 1900.5 3594.84 1923.75 3627.16 1952.75 3635.6 2007.39 3608.24 2042.4 3590.17 2066.6 3563.12 2081.59 3536.56 2094.67 3475.54 2123.93 3413.08 2149.98 3351.47 2177.87 3378.05 2206.9 3418.27 2219.13 3456.75 2219.05 3488.58 2219.51 3521.31 2213.94 3549.13 2197.87 3568.26 2187.19 3589.11 2175.32 3611.85 2178.11 3623.96 2179.16 3636.37 2185.56 3641.2 2197.25 3648.04 2214.4 3645.41 2234.84 3635.24 2250.16 3624.19 2266.91 3606.87 2278.21 3589.22 2287.03 3534.86 2313.55 3472.45 2320.96 3412.82 2312.93 3366.93 2306.84 3321.4 2289.02 3287.64 2256.64 3256.53 2227.92 3239.68 2186.18 3237.43 2144.31 3235.32 2101.61 3240.84 2058.09 3256.48 2018.12 3275.94 1968.74 3311.12 1923.62 3359.68 1900.22M3396.51 1993.54C3369.07 2013.01 3353.74 2044.8 3343.72 2076.02 3402.88 2049.99 3464.26 2027.72 3518.83 1992.5 3500.58 1982.7 3479.85 1978.6 3459.31 1977.75 3437.42 1976.2 3414.52 1980.48 3396.51 1993.54Z" fill="#FFFFFF" fill-rule="evenodd"/></g></svg>