<svg width="2528" height="834" xmlns="http://www.w3.org/2000/svg" xmlns:xlink="http://www.w3.org/1999/xlink" xml:space="preserve" overflow="hidden"><defs><clipPath id="clip0"><rect x="1050" y="1439" width="2528" height="834"/></clipPath></defs><g clip-path="url(#clip0)" transform="translate(-1050 -1439)"><path d="M1666.21 1453.58C1688.86 1447.46 1712.02 1441.42 1735.65 1442.04 1743.55 1442.43 1753.2 1443.75 1757.5 1451.36 1762.87 1462.56 1760.88 1475.55 1759.23 1487.39 1753.3 1520.82 1740.86 1552.67 1727.5 1583.71 1714.11 1614.09 1698.79 1643.67 1680.99 1671.7 1667.35 1692.66 1651.97 1713.38 1630.51 1726.88 1593.98 1750.83 1552.37 1767.38 1509.26 1774.4 1496.62 1802.53 1487.11 1831.93 1476.01 1860.68 1439.36 1955.82 1402.44 2050.82 1365.89 2145.99 1354.77 2175.2 1341.56 2203.57 1326.88 2231.13 1320.23 2244.17 1312.51 2257.69 1299.51 2265.33 1271.91 2281.59 1231.49 2271.19 1217.35 2241.77 1201.64 2207.44 1189.31 2171.64 1176.77 2136.05 1153.5 2068.09 1133.23 1999.1 1113.88 1929.93 1098.92 1873.15 1079.29 1817.73 1063.76 1761.13 1057.93 1738.6 1051.92 1715.91 1050.22 1692.61 1048.95 1678.13 1053.23 1662.95 1063.42 1652.37 1079.98 1633.99 1108.7 1628.83 1131.01 1639 1145.53 1645.76 1155.39 1659.91 1160.19 1674.85 1167.69 1703.78 1172.54 1733.41 1181.78 1761.88 1213.38 1865.3 1239.02 1970.53 1274.15 2072.84 1318.27 1963.2 1360.5 1852.78 1400.35 1741.52 1403.42 1730.99 1410.57 1721.64 1412.01 1710.8 1407.34 1671.65 1416.04 1631.72 1433.01 1596.44 1444.21 1573.8 1459.45 1552.56 1480.09 1537.67 1503.05 1520.84 1528.51 1507.76 1554.2 1495.63 1590.42 1478.9 1627.77 1464.42 1666.21 1453.58Z" fill="#FFFFFF" fill-rule="evenodd"/><path d="M3329.55 1467.79C3336.93 1460.88 3351.02 1462.35 3359.99 1466.53 3362.03 1492.65 3360.25 1519.09 3360.84 1545.34 3360.87 1599.5 3360.79 1653.65 3360.87 1707.81 3360.48 1714.13 3361.92 1720.89 3359.73 1726.92 3352.59 1730.79 3343.52 1730.04 3335.95 1728.06 3331.51 1726.97 3333.16 1721.27 3332.65 1718.05 3332.54 1712.45 3332.67 1706.86 3332.8 1701.29 3320.25 1713.56 3306.31 1725.79 3288.89 1730.12 3267.18 1735.05 3242.11 1730.51 3226.36 1713.95 3208.35 1695.33 3203.71 1668.17 3203.01 1643.26 3202.75 1616.36 3206.85 1587.25 3224.66 1565.97 3240.56 1546.68 3267.96 1539.72 3291.82 1545.13 3306.51 1548.69 3318.27 1558.72 3329.12 1568.76 3329.24 1535.1 3328.52 1501.42 3329.55 1467.79M3253.01 1581.32C3239.35 1595.65 3235.9 1616.52 3235.59 1635.6 3235.77 1653.53 3237.19 1672.61 3247.08 1688.11 3253.73 1698.86 3266 1705.9 3278.78 1705.05 3295.64 1705.23 3309.32 1693.68 3320.2 1682 3323.94 1677.46 3329.91 1673.18 3329.22 1666.55 3329.14 1645.3 3329.06 1624.02 3329.19 1602.77 3320.02 1592.25 3310.48 1581.47 3297.98 1574.89 3283.65 1567.44 3264.25 1569.17 3253.01 1581.32Z" fill="#FFFFFF" fill-rule="evenodd"/><path d="M3129.34 1476.38C3137.78 1474.6 3148.47 1473.53 3155.47 1479.74 3160.2 1486.91 3159.48 1496.64 3157.34 1504.64 3155 1512.22 3145.76 1512.94 3139.15 1512.99 3132.28 1513.1 3122.91 1511.73 3121.21 1503.65 3119.31 1494.52 3118.22 1479.82 3129.34 1476.38Z" fill="#FFFFFF" fill-rule="evenodd"/><path d="M2489.64 1481.6C2500.46 1480.41 2511.42 1481.41 2522.32 1481.13 2544.79 1481.26 2568.2 1479.58 2589.54 1488.11 2608.35 1495.46 2623.82 1511.47 2629.02 1531.18 2635.19 1554.91 2631.96 1581.73 2617.67 1602.01 2606.75 1617.56 2589.18 1627.47 2570.86 1631.5 2551.92 1635.77 2532.39 1634.42 2513.15 1634.68 2513.04 1665.34 2512.91 1695.99 2512.97 1726.64 2502.58 1731.09 2490.36 1731.15 2480 1726.64 2480.21 1649.71 2479.95 1572.75 2480.13 1495.82 2479.51 1489.56 2483.02 1482.76 2489.64 1481.6M2513.12 1607.42C2531.93 1606.82 2551.8 1610.29 2569.65 1602.76 2601.97 1589.57 2607.31 1538.84 2580.39 1517.73 2560.76 1504 2535.52 1509.56 2513.15 1508.45 2513.09 1541.43 2513.12 1574.44 2513.12 1607.42Z" fill="#FFFFFF" fill-rule="evenodd"/><path d="M3000.82 1506.7C3000.54 1500.35 3008.45 1500.4 3012.95 1500.01 3019.18 1500.27 3027.32 1498.77 3031.82 1504.07 3032.85 1518.3 3031.92 1532.62 3032.23 1546.88 3048.05 1547.45 3063.94 1546.1 3079.69 1547.71 3083.85 1554.89 3084.6 1565.97 3078.99 1572.51 3063.5 1574.29 3047.79 1572.84 3032.26 1573.39 3032.23 1605.4 3032.23 1637.41 3032.23 1669.42 3032.49 1679.6 3033.03 1690.94 3039.88 1699.16 3048.1 1707.32 3061.18 1705.77 3071.13 1701.97 3074.67 1701.38 3081.06 1697.01 3081.81 1703.14 3082.97 1710.4 3084.21 1719.44 3079.12 1725.51 3071.78 1730.47 3062.57 1731.14 3054.04 1731.92 3039.47 1732.54 3023.21 1729.77 3012.95 1718.46 3003.1 1707.19 3001.19 1691.56 3000.77 1677.2 3000.54 1642.58 3000.67 1607.96 3000.62 1573.34 2991.65 1572.59 2981.88 1574.89 2973.43 1571.89 2968.75 1565.17 2968.77 1553.96 2974.05 1547.58 2982.83 1546.34 2991.78 1547.09 3000.67 1546.88 3000.88 1533.5 3000.41 1520.09 3000.82 1506.7Z" fill="#FFFFFF" fill-rule="evenodd"/><path d="M2679.53 1555.37C2703.73 1543.48 2732.13 1539.84 2758.5 1545.86 2771.66 1548.86 2784.36 1556.22 2791.18 1568.19 2800.89 1584.52 2799.91 1604.27 2799.93 1622.57 2799.62 1656.99 2800.5 1691.44 2799.52 1725.84 2792.98 1731.61 2781.6 1730.42 2774 1727.24 2771.09 1721.06 2772.96 1713.67 2772.55 1707.03 2759.41 1720.21 2742.38 1730.57 2723.4 1731.79 2705.1 1733 2684.93 1729.18 2671.67 1715.66 2658.14 1702.09 2655.24 1680.82 2660.4 1662.96 2664.79 1648.28 2677.07 1637.09 2691.08 1631.51 2715.46 1621.15 2742.48 1622.54 2768.39 1622.46 2768.29 1608.33 2769.92 1592.35 2760.81 1580.41 2751.36 1568.68 2734.62 1567.83 2720.76 1568.99 2703.73 1570.15 2688.96 1579.12 2673.98 1586.23 2665.77 1587.11 2666.35 1576.12 2666.53 1570.7 2666.11 1562.89 2673.46 1558.44 2679.53 1555.37M2715.98 1648.21C2705.52 1650.76 2695.08 1657.51 2691.86 1668.24 2688.83 1678.68 2690.44 1691.24 2698.59 1699.02 2707.54 1707.65 2721.33 1708.68 2732.98 1706.23 2747.52 1702.97 2758.55 1692.17 2768.5 1681.8 2768.31 1669.68 2768.37 1657.56 2768.34 1645.44 2750.9 1645.65 2733.04 1643.73 2715.98 1648.21Z" fill="#FFFFFF" fill-rule="evenodd"/><path d="M2920.1 1544.94C2931.67 1541.57 2944.87 1542.56 2955.59 1548.17 2959.27 1554 2957.59 1561.66 2957.79 1568.24 2957.46 1571.78 2957.14 1579.55 2951.73 1577.45 2942.44 1575.1 2932.76 1570.77 2923.15 1574.14 2910.59 1578.62 2902.83 1590.24 2895.29 1600.52 2892.52 1604.87 2888.43 1609.11 2888.79 1614.65 2888.61 1650.97 2889 1687.35 2888.61 1723.67 2889.08 1727.78 2884.08 1729.13 2880.97 1729.44 2872.9 1730.48 2864.4 1730.35 2857 1726.67 2857.34 1668.63 2856.9 1610.59 2857.21 1552.57 2856.28 1546.26 2863.76 1545.82 2868.13 1545.69 2873.67 1545.82 2880.33 1544.7 2884.94 1548.64 2886.57 1557.6 2885.64 1566.79 2885.95 1575.85 2895.21 1563.65 2905.08 1550.27 2920.1 1544.94Z" fill="#FFFFFF" fill-rule="evenodd"/><path d="M3475.95 1544.31C3499.42 1541.1 3525.19 1543.22 3545.2 1557.05 3563.4 1569.67 3573.27 1591.23 3576.32 1612.68 3580.15 1640 3578 1669.5 3563.89 1693.82 3551.9 1714.71 3529.23 1728.28 3505.52 1730.99 3482.67 1733.73 3457.78 1731.36 3438.47 1717.84 3420.81 1705.71 3411.2 1684.9 3408.02 1664.22 3404.06 1638.71 3405.46 1611.54 3416.34 1587.84 3426.89 1564.11 3450.46 1547.77 3475.95 1544.31M3472.95 1572.43C3452.04 1579.33 3441.57 1601.72 3439.61 1622.27 3437.64 1643.6 3438.42 1666.96 3450.2 1685.6 3469.41 1714.17 3519.95 1712 3535.97 1681.18 3544.84 1665 3546.03 1645.85 3545.02 1627.78 3543.78 1610.92 3539.64 1592.65 3526.64 1580.86 3512.24 1568.06 3490.61 1566.95 3472.95 1572.43Z" fill="#FFFFFF" fill-rule="evenodd"/><path d="M3125.07 1548.91C3132.98 1544.78 3142.68 1545.86 3151.24 1547.21 3155.64 1547.59 3156.08 1552.24 3155.95 1555.72 3155.95 1612.66 3155.82 1669.6 3156 1726.53 3147.08 1730.84 3136.39 1730.84 3127.05 1728.13 3122.86 1726.82 3124.55 1721.55 3124.06 1718.4 3124.19 1667.61 3124.16 1616.82 3124.08 1566.02 3124.21 1560.32 3123.41 1554.43 3125.07 1548.91Z" fill="#FFFFFF" fill-rule="evenodd"/><path d="M2120.27 1602.04C2139.36 1597.36 2161.52 1600.41 2176.11 1614.44 2186.65 1624.23 2191.39 1638.87 2190.98 1653.08 2190.95 1829.54 2191.03 2006.02 2190.92 2182.51 2190.64 2204.93 2187.86 2230.39 2170.36 2246.41 2147.45 2265.08 2108.95 2260.74 2091.35 2236.67 2083.44 2226.47 2080.74 2213.27 2081.02 2200.61 2081.12 2017.18 2080.92 1833.72 2081.12 1650.29 2080.56 1627.38 2098.34 1606.95 2120.27 1602.04Z" fill="#FFFFFF" fill-rule="evenodd"/><path d="M2317.69 1614.29C2332.89 1602.1 2354.31 1599.11 2372.77 1604.73 2385.52 1608.67 2395.74 1618.57 2401.73 1630.3 2410.4 1647.03 2412.65 1666.11 2414.04 1684.64 2417.94 1748.23 2410.04 1811.75 2410.32 1875.34 2441.84 1844.48 2483.14 1822.47 2527.66 1819.43 2562.64 1817.06 2601.22 1820.77 2629.31 1843.84 2655.43 1865.52 2663.89 1900.57 2667.92 1932.74 2672.13 1978.91 2670.94 2025.44 2676.39 2071.5 2680.39 2114.01 2684.98 2156.62 2695 2198.22 2699 2213.4 2697.34 2230.88 2686.99 2243.28 2667.92 2267.3 2628.14 2272.84 2604.5 2252.58 2588.94 2238.56 2586.02 2216.68 2581.35 2197.42 2571.36 2148.24 2565.04 2098.23 2563.51 2048.07 2563.36 2014.51 2567.36 1980.92 2564.55 1947.41 2563.59 1937.36 2557.22 1925.86 2545.86 1925.63 2523.3 1924.65 2501.13 1933.39 2483.6 1947.26 2456.06 1968.75 2439 2000.02 2421.4 2029.48 2418.27 2035.44 2413.32 2041.06 2413.5 2048.15 2413.29 2087.02 2412.83 2125.92 2409.55 2164.66 2408.08 2179.74 2406.43 2194.92 2402.3 2209.56 2396.57 2228.87 2380.67 2246.27 2359.97 2248.95 2332.04 2254.08 2299.95 2236.19 2293.97 2207.58 2290.66 2194.77 2296.75 2182.55 2298.46 2170.07 2304.32 2095.16 2300.65 2020.05 2301.45 1945.01 2301.68 1899.46 2302.28 1853.94 2302.9 1808.39 2303.96 1781.74 2305.92 1755.09 2306.18 1728.41 2306.36 1702.37 2298.17 1677.03 2298.77 1651 2299.08 1636.69 2306.28 1622.9 2317.69 1614.29Z" fill="#FFFFFF" fill-rule="evenodd"/><path d="M3062.76 1850.82C3124.08 1804.19 3217.8 1805.56 3276.37 1856.27 3307.91 1882.39 3328.35 1920.22 3336.35 1960.15 3343.97 1998.66 3343.89 2038.79 3336.07 2077.24 3327.94 2116.45 3307.75 2153.53 3276.91 2179.31 3218.68 2230.12 3125.27 2231.98 3063.81 2185.83 3028.79 2160.12 3003 2124.25 2979.93 2087.95 2955.98 2120.87 2925.6 2149.91 2888.66 2167.62 2857.84 2183.29 2822.04 2191.15 2787.82 2183.89 2746.91 2175.79 2712.68 2145.54 2694.48 2108.64 2675.72 2069.38 2673.06 2024.2 2678.48 1981.59 2683.44 1942.51 2701.56 1904.35 2732.58 1879.42 2763.4 1853.02 2807.02 1844.2 2846.18 1853.48 2900.95 1866.26 2947.28 1903.16 2980.01 1948.07 3002.72 1912 3028.25 1876.52 3062.76 1850.82M3091.59 1938.84C3069.29 1962.5 3050.83 1989.55 3033.49 2016.99 3051.06 2043.81 3068.67 2070.73 3089.19 2095.4 3109.4 2119.57 3140.58 2135.61 3172.48 2133.54 3193.08 2132.87 3213.65 2124.28 3227.35 2108.64 3248.11 2085.16 3256.96 2053.32 3257.86 2022.5 3258.66 1994.85 3255.05 1965.74 3239.85 1942.02 3226.22 1920.59 3203.32 1904.27 3177.64 1902.17 3145.02 1898.89 3113.45 1915.57 3091.59 1938.84M2786.32 1946.06C2766.94 1959.87 2757.52 1983.94 2756.64 2007.16 2755.22 2032.97 2759.89 2061.6 2779.3 2080.27 2793.21 2095.09 2814.92 2100.88 2834.64 2096.87 2851.18 2094.36 2865.12 2084.22 2877.59 2073.65 2897.57 2056.63 2914.42 2036.33 2930.45 2015.62 2908.15 1985.23 2882.91 1953.79 2846.92 1939.41 2827.26 1931.6 2803.43 1932.92 2786.32 1946.06Z" fill="#FFFFFF" fill-rule="evenodd"/><path d="M1712.68 1843.22C1756.3 1821.86 1806.71 1821.03 1853.91 1827.66 1887.57 1832.98 1922.08 1843.5 1947.84 1866.75 1980.16 1895.75 1988.6 1950.39 1961.24 1985.4 1943.17 2009.6 1916.12 2024.59 1889.56 2037.67 1828.54 2066.93 1766.08 2092.98 1704.47 2120.87 1731.05 2149.9 1771.27 2162.13 1809.75 2162.05 1841.58 2162.51 1874.31 2156.94 1902.13 2140.87 1921.26 2130.19 1942.11 2118.32 1964.85 2121.11 1976.96 2122.16 1989.37 2128.56 1994.2 2140.25 2001.04 2157.4 1998.41 2177.84 1988.24 2193.16 1977.19 2209.91 1959.87 2221.21 1942.22 2230.03 1887.86 2256.55 1825.45 2263.96 1765.82 2255.93 1719.93 2249.84 1674.4 2232.02 1640.64 2199.64 1609.53 2170.92 1592.68 2129.18 1590.43 2087.31 1588.32 2044.61 1593.84 2001.09 1609.48 1961.12 1628.94 1911.74 1664.12 1866.62 1712.68 1843.22M1749.51 1936.54C1722.07 1956.01 1706.74 1987.8 1696.72 2019.02 1755.88 1992.99 1817.26 1970.72 1871.83 1935.5 1853.58 1925.7 1832.85 1921.6 1812.31 1920.75 1790.42 1919.2 1767.52 1923.48 1749.51 1936.54Z" fill="#FFFFFF" fill-rule="evenodd"/><path d="M2387.68 1439.12C2392.22 1438.97 2396.86 1438.78 2401.34 1439.79 2402.96 1440.07 2404.52 1441.12 2405 1442.78 2404.98 1444.86 2404.06 1446.79 2403.31 1448.69 2396.94 1463.26 2390.74 1477.91 2384.36 1492.47 2382.67 1495.86 2383.45 1499.74 2383.32 1503.38 2383.2 1511.04 2383.54 1518.72 2383.09 1526.37 2382.85 1531.27 2380.83 1536.6 2376.14 1538.82 2370.7 1541.29 2364.51 1540.9 2358.67 1541 2353.14 1540.73 2346.53 1540.91 2342.58 1536.33 2338.21 1531.01 2339.04 1523.63 2339.11 1517.23 2339.34 1504.93 2342.61 1492.63 2349.45 1482.33 2357.78 1469.77 2366.17 1457.26 2374.64 1444.8 2377.46 1440.46 2382.86 1439.34 2387.68 1439.12Z" fill="#FFFFFF" fill-rule="evenodd"/><path d="M2455.72 1439.22C2461.09 1439 2466.66 1438.56 2471.84 1440.22 2474.24 1440.94 2474.42 1444.03 2473.44 1445.98 2467.57 1460.19 2461.46 1474.3 2455.52 1488.48 2454.38 1491.35 2452.57 1494.13 2452.73 1497.35 2452.77 1505.63 2452.76 1513.92 2452.76 1522.2 2452.68 1526.7 2452.41 1531.53 2449.75 1535.34 2447.58 1538.42 2443.87 1539.92 2440.26 1540.38 2433.97 1541.19 2427.56 1541.19 2421.27 1540.47 2417.71 1540.04 2414.02 1538.65 2411.86 1535.62 2409.33 1532.04 2409.12 1527.45 2409 1523.22 2408.96 1513.53 2409.75 1503.64 2413.19 1494.52 2416.35 1486.05 2421.72 1478.72 2426.57 1471.2 2432.37 1462.46 2438.01 1453.62 2443.89 1444.94 2446.4 1440.88 2451.28 1439.53 2455.72 1439.22Z" fill="#FFFFFF" fill-rule="evenodd"/><path d="M3479.85 1439.26C3486.66 1438.98 3493.77 1438.46 3500.33 1440.7 3505.58 1442.55 3507.71 1448.58 3507.89 1453.77 3508.29 1463.7 3507.65 1473.84 3504.62 1483.35 3502.19 1491.05 3497.8 1497.87 3493.33 1504.5 3486.49 1514.72 3479.7 1525.02 3472.81 1535.22 3469.18 1540.72 3461.95 1541 3456.07 1541 3452.16 1540.77 3447.78 1541.41 3444.3 1539.21 3442.07 1537.66 3443.21 1534.73 3444.03 1532.71 3450.42 1517.74 3456.8 1502.77 3463.26 1487.82 3463.97 1486.14 3464.48 1484.33 3464.44 1482.48 3464.47 1473.59 3464.36 1464.7 3464.47 1455.81 3464.54 1451.22 3465.35 1446.18 3468.8 1442.89 3471.87 1440.29 3475.99 1439.61 3479.85 1439.26Z" fill="#FFFFFF" fill-rule="evenodd"/><path d="M3549.99 1439.2C3556.62 1438.98 3563.51 1438.53 3569.93 1440.6 3575.42 1442.41 3577.73 1448.5 3577.89 1453.81 3578.36 1465.28 3577.4 1477.1 3572.91 1487.79 3569.89 1495.17 3564.97 1501.52 3560.64 1508.16 3554.45 1517.26 3548.49 1526.53 3542.14 1535.51 3538.5 1540.6 3531.59 1540.95 3525.89 1541 3521.57 1540.81 3516.76 1541.47 3512.93 1539.05 3511.21 1537.06 3512.24 1534.33 3513.11 1532.22 3519.05 1518.63 3524.95 1505.03 3530.89 1491.42 3532.07 1488.59 3533.79 1485.8 3533.69 1482.61 3533.71 1473.68 3533.6 1464.75 3533.72 1455.81 3533.81 1451.27 3534.66 1446.29 3538.12 1443.04 3541.29 1440.08 3545.84 1439.56 3549.99 1439.2Z" fill="#FFFFFF" fill-rule="evenodd"/></g></svg>