<svg width="2528" height="831" xmlns="http://www.w3.org/2000/svg" xmlns:xlink="http://www.w3.org/1999/xlink" xml:space="preserve" overflow="hidden"><defs><clipPath id="clip0"><rect x="2696" y="378" width="2528" height="831"/></clipPath></defs><g clip-path="url(#clip0)" transform="translate(-2696 -378)"><path d="M3312.21 389.581C3334.86 383.464 3358.02 377.424 3381.65 378.044 3389.55 378.431 3399.2 379.747 3403.5 387.361 3408.87 398.563 3406.88 411.545 3405.23 423.392 3399.3 456.816 3386.86 488.666 3373.5 519.715 3360.11 550.093 3344.79 579.671 3326.99 607.701 3313.34 628.659 3297.97 649.384 3276.51 662.883 3239.98 686.834 3198.37 703.379 3155.26 710.399 3142.62 738.532 3133.1 767.93 3122.01 796.682 3085.36 891.817 3048.44 986.824 3011.89 1081.99 3000.77 1111.2 2987.56 1139.57 2972.88 1167.13 2966.23 1180.17 2958.51 1193.69 2945.51 1201.33 2917.91 1217.59 2877.49 1207.19 2863.35 1177.77 2847.64 1143.44 2835.31 1107.64 2822.77 1072.05 2799.5 1004.09 2779.23 935.101 2759.88 865.93 2744.92 809.148 2725.29 753.734 2709.76 697.133 2703.93 674.6 2697.92 651.913 2696.22 628.607 2694.95 614.128 2699.23 598.952 2709.42 588.37 2725.98 569.993 2754.7 564.831 2777.01 575 2791.53 581.762 2801.39 595.906 2806.19 610.85 2813.69 639.783 2818.54 669.413 2827.78 697.881 2859.38 801.302 2885.02 906.529 2920.15 1008.84 2964.27 899.199 3006.5 788.784 3046.35 677.517 3049.42 666.987 3056.57 657.643 3058.01 646.803 3053.34 607.649 3062.04 567.721 3079.01 532.439 3090.21 509.804 3105.45 488.562 3126.09 473.67 3149.05 456.842 3174.51 443.756 3200.2 431.626 3236.42 414.901 3273.77 400.421 3312.21 389.581Z" fill-rule="evenodd"/><path d="M4975.55 403.791C4982.93 396.879 4997.02 398.349 5005.99 402.527 5008.03 428.652 5006.25 455.086 5006.84 481.339 5006.87 535.497 5006.79 589.655 5006.87 643.812 5006.48 650.131 5007.92 656.887 5005.73 662.922 4998.6 666.791 4989.52 666.043 4981.95 664.057 4977.51 662.974 4979.16 657.274 4978.65 654.051 4978.54 648.454 4978.67 642.858 4978.8 637.288 4966.25 649.563 4952.31 661.787 4934.89 666.12 4913.19 671.046 4888.11 666.507 4872.36 649.95 4854.35 631.33 4849.71 604.174 4849.01 579.262 4848.75 552.363 4852.85 523.247 4870.66 501.971 4886.56 482.68 4913.96 475.717 4937.82 481.133 4952.51 484.692 4964.27 494.724 4975.12 504.756 4975.25 471.101 4974.52 437.42 4975.55 403.791M4899.01 517.315C4885.35 531.654 4881.9 552.518 4881.59 571.602 4881.77 589.526 4883.19 608.61 4893.08 624.109 4899.73 634.863 4912 641.904 4924.78 641.053 4941.64 641.233 4955.32 629.68 4966.2 617.997 4969.94 613.458 4975.92 609.177 4975.22 602.549 4975.14 581.299 4975.06 560.023 4975.19 538.772 4966.02 528.25 4956.48 517.47 4943.98 510.894 4929.65 503.441 4910.25 505.169 4899.01 517.315Z" fill-rule="evenodd"/><path d="M4775.34 412.381C4783.78 410.596 4794.46 409.535 4801.47 415.745 4806.2 422.913 4805.48 432.642 4803.34 440.637 4801 448.219 4791.76 448.943 4785.15 448.995 4778.28 449.098 4768.91 447.727 4767.21 439.654 4765.31 430.52 4764.22 415.823 4775.34 412.381Z" fill-rule="evenodd"/><path d="M4136.57 417.596C4147.33 416.406 4158.21 417.415 4169.04 417.131 4191.37 417.26 4214.62 415.578 4235.82 424.115 4254.5 431.461 4269.88 447.474 4275.04 467.185 4281.17 490.906 4277.96 517.731 4263.77 538.012 4252.91 553.558 4235.46 563.466 4217.26 567.501 4198.45 571.769 4179.05 570.424 4159.93 570.683 4159.83 601.337 4159.7 631.99 4159.75 662.644 4149.43 667.093 4137.29 667.145 4127 662.644 4127.21 585.712 4126.95 508.755 4127.13 431.824 4126.51 425.564 4130 418.76 4136.57 417.596M4159.9 543.418C4178.59 542.823 4198.32 546.289 4216.06 538.762 4248.16 525.569 4253.48 474.842 4226.73 453.734 4207.23 439.998 4182.15 445.559 4159.93 444.447 4159.88 477.429 4159.9 510.436 4159.9 543.418Z" fill-rule="evenodd"/><path d="M4646.82 442.703C4646.54 436.347 4654.45 436.399 4658.95 436.011 4665.18 436.27 4673.32 434.771 4677.82 440.068 4678.85 454.303 4677.92 468.617 4678.23 482.879 4694.05 483.447 4709.94 482.103 4725.69 483.705 4729.85 490.888 4730.6 501.972 4724.99 508.508 4709.5 510.291 4693.79 508.844 4678.25 509.387 4678.23 541.398 4678.23 573.409 4678.23 605.42 4678.49 615.6 4679.03 626.942 4685.88 635.158 4694.1 643.322 4707.18 641.772 4717.13 637.974 4720.67 637.38 4727.06 633.014 4727.81 639.137 4728.97 646.397 4730.21 655.439 4725.12 661.511 4717.78 666.472 4708.57 667.143 4700.04 667.919 4685.47 668.539 4669.21 665.774 4658.95 654.458 4649.1 643.193 4647.19 627.562 4646.77 613.197 4646.54 578.576 4646.67 543.956 4646.62 509.335 4637.65 508.586 4627.88 510.885 4619.43 507.888 4614.75 501.171 4614.77 489.958 4620.05 483.576 4628.83 482.336 4637.78 483.085 4646.67 482.879 4646.88 469.495 4646.41 456.086 4646.82 442.703Z" fill-rule="evenodd"/><path d="M4326.38 491.369C4350.41 479.48 4378.6 475.836 4404.79 481.858 4417.86 484.856 4430.47 492.222 4437.25 504.188 4446.89 520.523 4445.91 540.268 4445.93 558.566 4445.62 592.992 4446.5 627.444 4445.52 661.844 4439.02 667.607 4427.73 666.418 4420.18 663.239 4417.3 657.062 4419.15 649.671 4418.74 643.028 4405.7 656.21 4388.79 666.573 4369.94 667.788 4351.77 669.003 4331.74 665.178 4318.57 651.661 4305.14 638.092 4302.26 616.821 4307.38 598.962 4311.74 584.283 4323.93 573.091 4337.85 567.509 4362.06 557.145 4388.89 558.541 4414.61 558.463 4414.51 544.326 4416.14 528.354 4407.09 516.413 4397.71 504.679 4381.08 503.827 4367.31 504.99 4350.41 506.153 4335.74 515.121 4320.87 522.228 4312.72 523.107 4313.29 512.123 4313.47 506.695 4313.06 498.89 4320.35 494.445 4326.38 491.369M4362.57 584.205C4352.18 586.764 4341.82 593.509 4338.63 604.235 4335.61 614.676 4337.21 627.237 4345.3 635.017 4354.19 643.649 4367.88 644.682 4379.46 642.227 4393.89 638.971 4404.85 628.167 4414.72 617.804 4414.54 605.682 4414.59 593.561 4414.56 581.439 4397.24 581.646 4379.51 579.734 4362.57 584.205Z" fill-rule="evenodd"/><path d="M4566.1 480.937C4577.67 477.571 4590.87 478.555 4601.59 484.173 4605.27 489.998 4603.58 497.66 4603.79 504.236 4603.46 507.783 4603.14 515.549 4597.73 513.452 4588.44 511.096 4578.76 506.773 4569.15 510.139 4556.59 514.617 4548.83 526.241 4541.29 536.519 4538.52 540.868 4534.43 545.113 4534.79 550.653 4534.61 586.974 4535 623.347 4534.61 659.668 4535.08 663.784 4530.08 665.13 4526.97 665.441 4518.9 666.477 4510.4 666.347 4503 662.671 4503.34 604.63 4502.9 546.589 4503.21 488.574 4502.27 482.257 4509.76 481.817 4514.13 481.687 4519.67 481.817 4526.33 480.704 4530.94 484.639 4532.57 493.596 4531.63 502.786 4531.95 511.847 4541.21 499.654 4551.08 486.27 4566.1 480.937Z" fill-rule="evenodd"/><path d="M5121.95 480.308C5145.42 477.102 5171.19 479.222 5191.2 493.052 5209.4 505.666 5219.27 527.225 5222.32 548.68 5226.15 576.003 5224 605.498 5209.89 629.823 5197.9 650.709 5175.23 664.28 5151.52 666.994 5128.67 669.734 5103.78 667.356 5084.47 653.837 5066.81 641.713 5057.2 620.904 5054.02 600.225 5050.06 574.711 5051.46 547.543 5062.34 523.839 5072.89 500.109 5096.46 483.772 5121.95 480.308M5118.95 508.432C5098.04 515.334 5087.57 537.72 5085.61 558.271 5083.64 579.596 5084.42 602.965 5096.2 621.602 5115.41 650.166 5165.95 647.995 5181.97 617.182 5190.84 601 5192.03 581.846 5191.02 563.777 5189.78 546.923 5185.64 528.647 5172.64 516.859 5158.24 504.064 5136.61 502.952 5118.95 508.432Z" fill-rule="evenodd"/><path d="M4771.07 484.91C4778.98 480.781 4788.68 481.865 4797.24 483.207 4801.64 483.594 4802.08 488.24 4801.95 491.724 4801.95 548.66 4801.82 605.597 4802 662.533 4793.08 666.843 4782.39 666.843 4773.05 664.133 4768.86 662.817 4770.55 657.552 4770.06 654.403 4770.19 603.609 4770.16 552.816 4770.08 502.022 4770.21 496.318 4769.41 490.433 4771.07 484.91Z" fill-rule="evenodd"/><path d="M3766.62 539.037C3785.89 534.369 3808.25 537.412 3822.97 551.416 3833.61 561.19 3838.39 575.812 3837.98 589.996 3837.95 766.188 3838.03 942.404 3837.92 1118.62 3837.64 1141.01 3834.83 1166.43 3817.17 1182.42 3794.06 1201.07 3755.21 1196.74 3737.45 1172.7 3729.46 1162.51 3726.73 1149.34 3727.02 1136.7 3727.12 953.545 3726.92 770.365 3727.12 587.211 3726.55 564.336 3744.49 543.937 3766.62 539.037Z" fill-rule="evenodd"/><path d="M3963.69 550.312C3978.89 538.101 4000.31 535.107 4018.77 540.734 4031.52 544.685 4041.74 554.598 4047.73 566.344 4056.4 583.099 4058.65 602.202 4060.04 620.764 4063.94 684.451 4056.04 748.062 4056.32 811.75 4087.84 780.848 4129.14 758.801 4173.66 755.755 4208.64 753.38 4247.22 757.097 4275.31 780.203 4301.43 801.914 4309.89 837.023 4313.92 869.242 4318.13 915.478 4316.94 962.076 4322.39 1008.21 4326.39 1050.78 4330.98 1093.45 4341 1135.12 4345 1150.32 4343.34 1167.83 4332.99 1180.25 4313.92 1204.31 4274.14 1209.86 4250.5 1189.56 4234.94 1175.52 4232.02 1153.6 4227.35 1134.32 4217.36 1085.06 4211.04 1034.98 4209.51 984.742 4209.36 951.13 4213.36 917.491 4210.55 883.931 4209.59 873.863 4203.21 862.349 4191.86 862.116 4169.3 861.136 4147.13 869.887 4129.6 883.776 4102.06 905.307 4085 936.621 4067.4 966.129 4064.27 972.092 4059.32 977.72 4059.5 984.82 4059.29 1023.75 4058.83 1062.71 4055.55 1101.51 4054.08 1116.61 4052.43 1131.81 4048.3 1146.48 4042.57 1165.81 4026.67 1183.24 4005.97 1185.93 3978.04 1191.06 3945.95 1173.15 3939.97 1144.49 3936.66 1131.66 3942.75 1119.42 3944.46 1106.93 3950.32 1031.91 3946.65 956.68 3947.45 881.53 3947.68 835.913 3948.28 790.322 3948.9 744.706 3949.96 718.012 3951.92 691.319 3952.17 664.599 3952.36 638.525 3944.17 613.148 3944.77 587.074 3945.08 572.746 3952.28 558.935 3963.69 550.312Z" fill-rule="evenodd"/><path d="M4709.76 787.733C4771.08 741.225 4864.8 742.592 4923.37 793.176 4954.91 819.229 4975.35 856.967 4983.35 896.795 4990.97 935.204 4990.89 975.238 4983.07 1013.59 4974.94 1052.7 4954.75 1089.69 4923.91 1115.41 4865.68 1166.1 4772.27 1167.95 4710.81 1121.91 4675.79 1096.27 4650 1060.49 4626.93 1024.27 4602.98 1057.11 4572.6 1086.08 4535.66 1103.75 4504.84 1119.38 4469.04 1127.22 4434.82 1119.97 4393.91 1111.9 4359.68 1081.72 4341.48 1044.91 4322.72 1005.75 4320.06 960.689 4325.48 918.179 4330.44 879.202 4348.56 841.129 4379.58 816.262 4410.4 789.925 4454.02 781.13 4493.18 790.39 4547.95 803.133 4594.28 839.942 4627.01 884.749 4649.72 848.764 4675.25 813.373 4709.76 787.733M4738.59 875.54C4716.29 899.142 4697.83 926.124 4680.49 953.492 4698.06 980.242 4715.67 1007.09 4736.19 1031.7 4756.4 1055.82 4787.58 1071.81 4819.48 1069.75 4840.08 1069.08 4860.65 1060.52 4874.35 1044.91 4895.11 1021.49 4903.96 989.734 4904.86 958.987 4905.66 931.412 4902.05 902.366 4886.85 878.712 4873.22 857.328 4850.32 841.051 4824.64 838.962 4792.02 835.686 4760.45 852.324 4738.59 875.54M4433.32 882.736C4413.94 896.511 4404.52 920.526 4403.64 943.69 4402.22 969.433 4406.89 997.989 4426.3 1016.61 4440.21 1031.39 4461.92 1037.17 4481.64 1033.17 4498.18 1030.67 4512.12 1020.56 4524.59 1010.01 4544.57 993.036 4561.42 972.787 4577.45 952.125 4555.15 921.816 4529.9 890.449 4493.92 876.107 4474.26 868.317 4450.43 869.632 4433.32 882.736Z" fill-rule="evenodd"/><path d="M3359.68 779.22C3403.3 757.859 3453.71 757.033 3500.92 763.663 3534.57 768.978 3569.08 779.504 3594.84 802.749 3627.16 831.748 3635.6 886.391 3608.24 921.4 3590.17 945.6 3563.12 960.59 3536.56 973.67 3475.54 1002.93 3413.08 1028.98 3351.47 1056.87 3378.05 1085.9 3418.27 1098.13 3456.75 1098.05 3488.58 1098.51 3521.31 1092.94 3549.13 1076.87 3568.26 1066.19 3589.11 1054.32 3611.85 1057.11 3623.96 1058.16 3636.37 1064.56 3641.2 1076.25 3648.04 1093.4 3645.41 1113.84 3635.24 1129.16 3624.19 1145.91 3606.87 1157.21 3589.22 1166.03 3534.86 1192.55 3472.45 1199.96 3412.82 1191.93 3366.93 1185.84 3321.4 1168.02 3287.64 1135.64 3256.53 1106.92 3239.68 1065.18 3237.43 1023.31 3235.32 980.61 3240.84 937.087 3256.48 897.123 3275.94 847.744 3311.12 802.62 3359.68 779.22M3396.51 872.537C3369.07 892.015 3353.74 923.8 3343.72 955.017 3402.88 928.986 3464.26 906.721 3518.83 871.505 3500.58 861.701 3479.85 857.599 3459.31 856.747 3437.42 855.2 3414.52 859.482 3396.51 872.537Z" fill-rule="evenodd"/></g></svg>