<svg width="881" height="880" xmlns="http://www.w3.org/2000/svg" xmlns:xlink="http://www.w3.org/1999/xlink" xml:space="preserve" overflow="hidden"><defs><clipPath id="clip0"><rect x="2970" y="1482" width="881" height="880"/></clipPath></defs><g clip-path="url(#clip0)" transform="translate(-2970 -1482)"><rect x="2970" y="1482" width="881" height="880" fill="#FFC000"/><path d="M3233.14 1786.87C3240.75 1784.83 3248.54 1782.81 3256.48 1783.01 3259.13 1783.14 3262.38 1783.58 3263.82 1786.13 3265.63 1789.88 3264.96 1794.22 3264.41 1798.19 3262.41 1809.37 3258.23 1820.02 3253.74 1830.41 3249.24 1840.57 3244.09 1850.47 3238.11 1859.84 3233.52 1866.85 3228.35 1873.79 3221.14 1878.3 3208.86 1886.32 3194.87 1891.85 3180.38 1894.2 3176.13 1903.61 3172.93 1913.45 3169.2 1923.06 3156.88 1954.89 3144.47 1986.67 3132.18 2018.51 3128.45 2028.28 3124.01 2037.77 3119.07 2046.99 3116.84 2051.35 3114.24 2055.88 3109.87 2058.43 3100.59 2063.87 3087.01 2060.39 3082.25 2050.55 3076.97 2039.07 3072.83 2027.09 3068.61 2015.18 3060.79 1992.45 3053.98 1969.37 3047.47 1946.23 3042.44 1927.23 3035.85 1908.7 3030.62 1889.76 3028.67 1882.22 3026.64 1874.63 3026.07 1866.84 3025.65 1861.99 3027.09 1856.92 3030.51 1853.38 3036.08 1847.23 3045.73 1845.5 3053.23 1848.9 3058.11 1851.17 3061.43 1855.9 3063.04 1860.9 3065.56 1870.58 3067.19 1880.49 3070.3 1890.01 3080.92 1924.61 3089.54 1959.81 3101.35 1994.04 3116.18 1957.36 3130.37 1920.42 3143.77 1883.2 3144.8 1879.68 3147.2 1876.55 3147.69 1872.92 3146.12 1859.83 3149.04 1846.47 3154.75 1834.67 3158.51 1827.09 3163.64 1819.99 3170.57 1815.01 3178.29 1809.38 3186.85 1805 3195.49 1800.94 3207.66 1795.34 3220.22 1790.5 3233.14 1786.87Z" fill="#00B050" fill-rule="evenodd"/><path d="M3385.21 1836.68C3391.63 1835.12 3399.08 1836.14 3403.99 1840.83 3407.54 1844.1 3409.13 1849 3408.99 1853.75 3408.98 1912.74 3409.01 1971.75 3408.97 2030.76 3408.88 2038.25 3407.94 2046.77 3402.06 2052.12 3394.35 2058.37 3381.4 2056.92 3375.48 2048.87 3372.82 2045.46 3371.91 2041.04 3372.01 2036.81 3372.04 1975.48 3371.97 1914.14 3372.04 1852.81 3371.85 1845.15 3377.83 1838.32 3385.21 1836.68Z" fill="#202124" fill-rule="evenodd"/><path d="M3451.25 1840.14C3456.33 1836.03 3463.49 1835.03 3469.66 1836.92 3473.92 1838.24 3477.33 1841.57 3479.33 1845.52 3482.23 1851.15 3482.98 1857.56 3483.45 1863.8 3484.75 1885.18 3482.11 1906.55 3482.2 1927.94 3492.74 1917.56 3506.54 1910.15 3521.41 1909.13 3533.1 1908.33 3546 1909.58 3555.38 1917.34 3564.11 1924.63 3566.94 1936.43 3568.28 1947.25 3569.69 1962.77 3569.29 1978.42 3571.11 1993.92 3572.45 2008.21 3573.98 2022.55 3577.33 2036.54 3578.67 2041.65 3578.11 2047.52 3574.66 2051.69 3568.28 2059.77 3554.99 2061.64 3547.09 2054.82 3541.89 2050.11 3540.92 2042.75 3539.35 2036.27 3536.02 2019.73 3533.9 2002.91 3533.39 1986.04 3533.34 1974.75 3534.68 1963.45 3533.74 1952.18 3533.42 1948.8 3531.29 1944.93 3527.49 1944.85 3519.96 1944.52 3512.55 1947.46 3506.69 1952.13 3497.49 1959.36 3491.79 1969.87 3485.9 1979.78 3484.86 1981.79 3483.21 1983.68 3483.27 1986.06 3483.2 1999.14 3483.04 2012.22 3481.95 2025.25 3481.45 2030.32 3480.9 2035.43 3479.52 2040.35 3477.61 2046.85 3472.29 2052.7 3465.38 2053.6 3456.04 2055.33 3445.32 2049.31 3443.32 2039.69 3442.22 2035.38 3444.25 2031.27 3444.82 2027.07 3446.78 2001.88 3445.56 1976.61 3445.82 1951.37 3445.9 1936.05 3446.1 1920.74 3446.31 1905.42 3446.66 1896.46 3447.32 1887.49 3447.4 1878.52 3447.46 1869.76 3444.73 1861.24 3444.93 1852.48 3445.03 1847.67 3447.44 1843.03 3451.25 1840.14Z" fill="#202124" fill-rule="evenodd"/><path d="M3701.5 1920.27C3722.03 1904.73 3753.41 1905.19 3773.02 1922.09 3783.59 1930.8 3790.43 1943.41 3793.11 1956.72 3795.66 1969.55 3795.63 1982.93 3793.01 1995.75 3790.29 2008.81 3783.53 2021.18 3773.21 2029.77 3753.71 2046.71 3722.43 2047.33 3701.85 2031.94 3690.13 2023.37 3681.49 2011.42 3673.77 1999.32 3665.75 2010.29 3655.57 2019.97 3643.21 2025.87 3632.89 2031.1 3620.9 2033.72 3609.44 2031.3 3595.74 2028.6 3584.28 2018.51 3578.19 2006.21 3571.91 1993.13 3571.02 1978.07 3572.83 1963.86 3574.49 1950.84 3580.56 1938.12 3590.95 1929.81 3601.26 1921.01 3615.87 1918.07 3628.98 1921.16 3647.32 1925.42 3662.83 1937.72 3673.79 1952.69 3681.4 1940.67 3689.94 1928.84 3701.5 1920.27M3711.15 1949.61C3703.69 1957.5 3697.51 1966.52 3691.7 1975.66 3697.58 1984.6 3703.48 1993.58 3710.35 2001.8 3717.12 2009.86 3727.56 2015.2 3738.24 2014.51 3745.14 2014.29 3752.02 2011.43 3756.61 2006.21 3763.56 1998.38 3766.53 1987.77 3766.83 1977.5 3767.1 1968.28 3765.89 1958.58 3760.8 1950.67 3756.23 1943.53 3748.57 1938.09 3739.97 1937.39 3729.04 1936.3 3718.47 1941.86 3711.15 1949.61M3608.94 1952.02C3602.45 1956.62 3599.29 1964.65 3599 1972.39 3598.53 1980.99 3600.09 1990.53 3606.59 1996.76 3611.25 2001.69 3618.51 2003.63 3625.12 2002.29 3630.66 2001.45 3635.32 1998.07 3639.5 1994.55 3646.19 1988.88 3651.83 1982.11 3657.2 1975.21 3649.73 1965.08 3641.28 1954.6 3629.23 1949.8 3622.65 1947.2 3614.67 1947.64 3608.94 1952.02Z" fill="#202124" fill-rule="evenodd"/><path d="M3248.19 1917.45C3262.84 1910.28 3279.77 1910 3295.62 1912.23 3306.92 1914.01 3318.51 1917.55 3327.16 1925.35 3338.01 1935.08 3340.84 1953.42 3331.66 1965.17 3325.59 1973.29 3316.51 1978.32 3307.59 1982.71 3287.1 1992.53 3266.12 2001.28 3245.44 2010.64 3254.36 2020.38 3267.87 2024.49 3280.79 2024.46 3291.48 2024.62 3302.47 2022.75 3311.81 2017.35 3318.23 2013.77 3325.23 2009.78 3332.87 2010.72 3336.93 2011.07 3341.1 2013.22 3342.72 2017.14 3345.02 2022.9 3344.14 2029.76 3340.72 2034.9 3337.01 2040.52 3331.2 2044.32 3325.27 2047.28 3307.02 2056.18 3286.06 2058.66 3266.04 2055.97 3250.63 2053.93 3235.34 2047.94 3224 2037.08 3213.56 2027.44 3207.9 2013.43 3207.15 1999.37 3206.43 1985.04 3208.29 1970.44 3213.54 1957.02 3220.08 1940.45 3231.89 1925.3 3248.19 1917.45M3260.56 1948.77C3251.35 1955.31 3246.2 1965.98 3242.84 1976.45 3262.7 1967.72 3283.31 1960.24 3301.63 1948.42 3295.51 1945.13 3288.55 1943.76 3281.65 1943.47 3274.3 1942.95 3266.61 1944.39 3260.56 1948.77Z" fill="#202124" fill-rule="evenodd"/></g></svg>