<svg id="cat-logo-svg" data-name="Layer 2" xmlns="http://www.w3.org/2000/svg" viewBox="0 0 459.12 292.26" class="cat-logo-shadow-filter">
<defs>
</defs>
<g id="Layer_1-2" data-name="Layer 1">
<g id="cat-logo-bg">
<polygon class="cls-2" points="452.52 203.34 402.5 171.51 72.74 253.26 72.76 128.59 452.52 33.9 452.52 203.34"></polygon>
<polygon class="cls-3" points="423.59 145 51.14 237.86 6.6 285.66 6.6 110.57 423.59 6.6 423.59 145"></polygon>
<g id="cat-logo-shadow">
<path class="cls-1" d="M32.21,194.11v-45.25c0-11.88,7.96-22.18,19.48-25.05,11.4-2.84,19.48,3.46,19.48,15.34v5.23l-14.73,3.67v-5.7c0-4.99-2.73-4.9-4.75-4.4-2.14,.53-4.87,1.81-4.87,6.8v46.2c0,5.11,2.61,4.93,4.87,4.37s4.75-1.66,4.75-6.77v-6.06l14.73-3.67v5.58c0,11.88-8.08,22.21-19.48,25.05-11.52,2.87-19.48-3.46-19.48-15.33Z"></path>
<path class="cls-1" d="M87.91,115.6l15.68-3.91,14.85,80.15-14.61,3.64-2.14-13.6-12,2.99-2.26,14.7-14.61,3.64,15.08-87.62Zm12,54.26l-4.04-30.71-4.28,32.78,8.31-2.07Z"></path>
<path class="cls-1" d="M126.63,120.2l-9.98,2.49v-14.25l34.68-8.65v14.25l-9.98,2.49v69.6l-14.73,3.67V120.2Z"></path>
<path class="cls-1" d="M164.76,96.45l15.68-3.91,14.85,80.15-14.61,3.64-2.14-13.6-12,2.99-2.26,14.7-14.61,3.64,15.08-87.62Zm12,54.26l-4.04-30.71-4.28,32.78,8.31-2.07Z"></path>
<path class="cls-1" d="M200.27,87.59l19.24-4.8c11.4-2.84,19.36,3.01,19.36,17.15v19.24c0,8.43-2.73,15.17-7.48,19.92l7.84,22.63-15.8,3.94-5.34-19.1-3.09,.77v20.43l-14.73,3.67V87.59Zm17.34,45.21c2.97-.74,6.77-2.52,6.77-9.64v-19.48c0-7.01-3.56-7.07-6.77-6.27l-2.61,.65v35.39l2.61-.65Z"></path>
<path class="cls-1" d="M247.78,75.75l14.61-3.64v83.85l-14.61,3.64V75.75Z"></path>
<path class="cls-1" d="M272.36,69.62l13.9-3.46,10.57,39.05V63.52l14.73-3.67v83.85l-13.9,3.46-10.57-37.75v40.38l-14.73,3.67V69.62Z"></path>
<path class="cls-1" d="M331.63,54.84l15.68-3.91,14.85,80.15-14.61,3.64-2.14-13.6-12,2.99-2.26,14.7-14.61,3.64,15.08-87.62Zm12,54.26l-4.04-30.71-4.28,32.78,8.31-2.07Z"></path>
<path class="cls-1" d="M362.75,111.81l14.61-3.64c0,4.87,3.09,5.05,5.58,4.43,2.38-.59,4.99-2.55,4.99-5.76,0-2.61-.47-4.16-3.68-8.11l-14.37-17.92c-5.7-7.13-6.41-12.06-6.41-16.93,0-10.81,7.96-19.8,19.24-22.61,11.04-2.75,19,3.22,19,14.74l-14.37,3.58c0-4.51-2.73-4.9-4.87-4.37-2.26,.56-4.39,2.4-4.39,5.37,0,2.02,1.31,4.66,3.44,7.34l14.37,17.68c5.7,7.13,6.65,11.76,6.65,17.94,0,11.28-8.2,20.45-19.83,23.36-11.64,2.9-19.96-3.1-19.96-15.1Z"></path>
</g>
</g>
</g>
</svg>
